<svg xmlns="http://www.w3.org/2000/svg" xmlns:xlink="http://www.w3.org/1999/xlink" version="1.1" x="0px" y="0px" viewBox="0 0 512 640" enable-background="new 0 0 512 512" xml:space="preserve"><g><path d="M200.1,42.6c5.8-7.7,6.7-18,2.4-26.6c-4.3-8.6-13.1-14-22.7-14H27.4C17.8,2,9,7.4,4.7,16c-4.3,8.6-3.4,18.9,2.4,26.6   l71.1,94.8v347.1c0,14,11.4,25.4,25.4,25.4c14,0,25.4-11.4,25.4-25.4V137.5L200.1,42.6z M129,52.8l-25.4,33.9L78.2,52.8H129z"/><path d="M281.4,205.2c-14,0-25.4,11.4-25.4,25.4v254c0,14,11.4,25.4,25.4,25.4c14,0,25.4-11.4,25.4-25.4v-254   C306.8,216.6,295.4,205.2,281.4,205.2z"/><path d="M179.8,281.4c-14,0-25.4,11.4-25.4,25.4v177.8c0,14,11.4,25.4,25.4,25.4c14,0,25.4-11.4,25.4-25.4V306.8   C205.2,292.8,193.8,281.4,179.8,281.4z"/><path d="M383,103.6c-14,0-25.4,11.4-25.4,25.4v355.6c0,14,11.4,25.4,25.4,25.4c14,0,25.4-11.4,25.4-25.4V129   C408.4,115,397,103.6,383,103.6z"/><path d="M484.6,2c-14,0-25.4,11.4-25.4,25.4v457.2c0,14,11.4,25.4,25.4,25.4c14,0,25.4-11.4,25.4-25.4V27.4   C510,13.4,498.6,2,484.6,2z"/></g><text x="0" y="527" fill="#000000" font-size="5px" font-weight="bold" font-family="'Helvetica Neue', Helvetica, Arial-Unicode, Arial, Sans-serif">Created by ProSymbols</text><text x="0" y="532" fill="#000000" font-size="5px" font-weight="bold" font-family="'Helvetica Neue', Helvetica, Arial-Unicode, Arial, Sans-serif">from the Noun Project</text></svg>